{"accessors":[{"bufferView":0,"componentType":5126,"count":176,"min":[-5.712869644165039,-0.3668413460254669,-6.110010147094727],"max":[5.71299934387207,2.090761423110962,2.9576590061187746],"type":"VEC3","name":"lod6_G58_maya_vertices#0_POSITION"},{"bufferView":0,"byteOffset":12,"componentType":5120,"count":176,"type":"VEC4","name":"lod6_G58_maya_vertices#0_TANGENT"},{"bufferView":0,"byteOffset":16,"componentType":5120,"count":176,"type":"VEC4","name":"lod6_G58_maya_vertices#0_NORMAL"},{"bufferView":0,"byteOffset":20,"componentType":5122,"count":176,"type":"VEC2","name":"lod6_G58_maya_vertices#0_TEXCOORD_0"},{"bufferView":0,"byteOffset":24,"componentType":5122,"count":176,"type":"VEC2","name":"lod6_G58_maya_vertices#0_TEXCOORD_1"},{"bufferView":0,"byteOffset":28,"componentType":5123,"count":176,"type":"VEC4","name":"lod6_G58_maya_vertices#0_COLOR_0"},{"bufferView":1,"componentType":5123,"count":303,"type":"SCALAR","name":"lod6_G58_maya_indices#0"}],"asset":{"generator":"babylon.js glTF exporter for 3dsmax 2019 v1.0.7611.18261","version":"2.0","extensions":{"ASOBO_asset_optimized":{"BoundingBoxMax":[5.71299934387207,2.090761423110962,2.9576590061187746],"BoundingBoxMin":[-5.712869644165039,-0.3668413460254669,-6.110010147094727],"MajorVersion":4,"MinorVersion":4},"ASOBO_normal_map_convention":{"tangent_space_convention":"DirectX"}}},"bufferViews":[{"buffer":0,"byteLength":6336,"byteStride":36,"target":34962,"name":"BufferViewVertexND"},{"buffer":0,"byteLength":606,"byteOffset":6336,"target":34963,"name":"BufferViewIndex"}],"extensionsRequired":["MSFT_texture_dds"],"materials":[{"name":"LOD6","occlusionTexture":{"index":1},"pbrMetallicRoughness":{"baseColorTexture":{"index":0},"metallicRoughnessTexture":{"index":1}}}],"meshes":[{"primitives":[{"attributes":{"COLOR_0":5,"NORMAL":2,"POSITION":0,"TANGENT":1,"TEXCOORD_0":3,"TEXCOORD_1":4},"indices":6,"material":0,"mode":4,"extras":{"ASOBO_primitive":{"PrimitiveCount":101,"VertexType":"VTX","VertexVersion":2}}}],"name":"lod6_G58_maya"}],"nodes":[{"translation":[0.0,0.0,0.0],"rotation":[0.0,0.0,0.0,1.0],"scale":[1.0,1.0,1.0],"mesh":0,"name":"lod6_G58_maya"}],"scene":0,"scenes":[{"nodes":[0]}],"textures":[{"extensions":{"MSFT_texture_dds":{"source":0}}},{"extensions":{"MSFT_texture_dds":{"source":1}}}],"extensionsUsed":["ASOBO_normal_map_convention","MSFT_texture_dds","ASOBO_asset_optimized"],"buffers":[{"byteLength":6942,"uri":"Baron_LOD06.bin"}],"images":[{"uri":"BARONG58_AIRFRAME_LOD6_ALBD.PNG.DDS","extras":"ASOBO_image_converted_meta"},{"uri":"BARONG58_AIRFRAME_LOD6_COMP.PNG.DDS","extras":"ASOBO_image_converted_meta"}]}
