{"accessors":[{"bufferView":0,"componentType":5126,"count":161,"min":[0.0],"max":[5.33333349],"type":"SCALAR","name":"accessorAnimationInput"},{"bufferView":1,"componentType":5126,"count":161,"type":"VEC3","name":"accessorAnimationPositions"},{"bufferView":0,"byteOffset":644,"componentType":5126,"count":161,"min":[0.0],"max":[5.33333349],"type":"SCALAR","name":"accessorAnimationInput"},{"bufferView":2,"componentType":5126,"count":161,"type":"VEC4","name":"accessorAnimationRotations"},{"bufferView":0,"byteOffset":1288,"componentType":5126,"count":161,"min":[0.0],"max":[5.33333349],"type":"SCALAR","name":"accessorAnimationInput"},{"bufferView":1,"byteOffset":1932,"componentType":5126,"count":161,"type":"VEC3","name":"accessorAnimationPositions"},{"bufferView":0,"byteOffset":1932,"componentType":5126,"count":161,"min":[0.0],"max":[5.33333349],"type":"SCALAR","name":"accessorAnimationInput"},{"bufferView":2,"byteOffset":2576,"componentType":5126,"count":161,"type":"VEC4","name":"accessorAnimationRotations"},{"bufferView":0,"byteOffset":2576,"componentType":5126,"count":161,"min":[0.0],"max":[5.33333349],"type":"SCALAR","name":"accessorAnimationInput"},{"bufferView":1,"byteOffset":3864,"componentType":5126,"count":161,"type":"VEC3","name":"accessorAnimationScales"},{"bufferView":0,"byteOffset":3220,"componentType":5126,"count":161,"min":[0.0],"max":[5.33333349],"type":"SCALAR","name":"accessorAnimationInput"},{"bufferView":1,"byteOffset":5796,"componentType":5126,"count":161,"type":"VEC3","name":"accessorAnimationPositions"},{"bufferView":0,"byteOffset":3864,"componentType":5126,"count":161,"min":[0.0],"max":[5.33333349],"type":"SCALAR","name":"accessorAnimationInput"},{"bufferView":1,"byteOffset":7728,"componentType":5126,"count":161,"type":"VEC3","name":"accessorAnimationPositions"},{"bufferView":0,"byteOffset":4508,"componentType":5126,"count":161,"min":[0.0],"max":[5.33333349],"type":"SCALAR","name":"accessorAnimationInput"},{"bufferView":2,"byteOffset":5152,"componentType":5126,"count":161,"type":"VEC4","name":"accessorAnimationRotations"},{"bufferView":0,"byteOffset":5152,"componentType":5126,"count":161,"min":[0.0],"max":[5.33333349],"type":"SCALAR","name":"accessorAnimationInput"},{"bufferView":1,"byteOffset":9660,"componentType":5126,"count":161,"type":"VEC3","name":"accessorAnimationPositions"},{"bufferView":0,"byteOffset":5796,"componentType":5126,"count":161,"min":[0.0],"max":[5.33333349],"type":"SCALAR","name":"accessorAnimationInput"},{"bufferView":2,"byteOffset":7728,"componentType":5126,"count":161,"type":"VEC4","name":"accessorAnimationRotations"},{"bufferView":0,"byteOffset":6440,"componentType":5126,"count":161,"min":[0.0],"max":[5.33333349],"type":"SCALAR","name":"accessorAnimationInput"},{"bufferView":1,"byteOffset":11592,"componentType":5126,"count":161,"type":"VEC3","name":"accessorAnimationPositions"},{"bufferView":0,"byteOffset":7084,"componentType":5126,"count":141,"min":[0.0],"max":[4.66666651],"type":"SCALAR","name":"accessorAnimationInput"},{"bufferView":1,"byteOffset":13524,"componentType":5126,"count":141,"type":"VEC3","name":"accessorAnimationPositions"},{"bufferView":0,"byteOffset":7648,"componentType":5126,"count":141,"min":[0.0],"max":[4.66666651],"type":"SCALAR","name":"accessorAnimationInput"},{"bufferView":2,"byteOffset":10304,"componentType":5126,"count":141,"type":"VEC4","name":"accessorAnimationRotations"},{"bufferView":0,"byteOffset":8212,"componentType":5126,"count":141,"min":[0.0],"max":[4.66666651],"type":"SCALAR","name":"accessorAnimationInput"},{"bufferView":1,"byteOffset":15216,"componentType":5126,"count":141,"type":"VEC3","name":"accessorAnimationPositions"},{"bufferView":0,"byteOffset":8776,"componentType":5126,"count":141,"min":[0.0],"max":[4.66666651],"type":"SCALAR","name":"accessorAnimationInput"},{"bufferView":1,"byteOffset":16908,"componentType":5126,"count":141,"type":"VEC3","name":"accessorAnimationPositions"},{"bufferView":0,"byteOffset":9340,"componentType":5126,"count":141,"min":[0.0],"max":[4.66666651],"type":"SCALAR","name":"accessorAnimationInput"},{"bufferView":2,"byteOffset":12560,"componentType":5126,"count":141,"type":"VEC4","name":"accessorAnimationRotations"},{"bufferView":0,"byteOffset":9904,"componentType":5126,"count":141,"min":[0.0],"max":[4.66666651],"type":"SCALAR","name":"accessorAnimationInput"},{"bufferView":1,"byteOffset":18600,"componentType":5126,"count":141,"type":"VEC3","name":"accessorAnimationPositions"},{"bufferView":0,"byteOffset":10468,"componentType":5126,"count":141,"min":[0.0],"max":[4.66666651],"type":"SCALAR","name":"accessorAnimationInput"},{"bufferView":2,"byteOffset":14816,"componentType":5126,"count":141,"type":"VEC4","name":"accessorAnimationRotations"},{"bufferView":0,"byteOffset":11032,"componentType":5126,"count":141,"min":[0.0],"max":[4.66666651],"type":"SCALAR","name":"accessorAnimationInput"},{"bufferView":1,"byteOffset":20292,"componentType":5126,"count":141,"type":"VEC3","name":"accessorAnimationScales"},{"bufferView":0,"byteOffset":11596,"componentType":5126,"count":141,"min":[0.0],"max":[4.66666651],"type":"SCALAR","name":"accessorAnimationInput"},{"bufferView":1,"byteOffset":21984,"componentType":5126,"count":141,"type":"VEC3","name":"accessorAnimationPositions"},{"bufferView":0,"byteOffset":12160,"componentType":5126,"count":141,"min":[0.0],"max":[4.66666651],"type":"SCALAR","name":"accessorAnimationInput"},{"bufferView":2,"byteOffset":17072,"componentType":5126,"count":141,"type":"VEC4","name":"accessorAnimationRotations"},{"bufferView":0,"byteOffset":12724,"componentType":5126,"count":141,"min":[0.0],"max":[4.66666651],"type":"SCALAR","name":"accessorAnimationInput"},{"bufferView":1,"byteOffset":23676,"componentType":5126,"count":141,"type":"VEC3","name":"accessorAnimationScales"},{"bufferView":0,"byteOffset":13288,"componentType":5126,"count":141,"min":[0.0],"max":[4.66666651],"type":"SCALAR","name":"accessorAnimationInput"},{"bufferView":1,"byteOffset":25368,"componentType":5126,"count":141,"type":"VEC3","name":"accessorAnimationPositions"},{"bufferView":0,"byteOffset":13852,"componentType":5126,"count":141,"min":[0.0],"max":[4.66666651],"type":"SCALAR","name":"accessorAnimationInput"},{"bufferView":2,"byteOffset":19328,"componentType":5126,"count":141,"type":"VEC4","name":"accessorAnimationRotations"},{"bufferView":0,"byteOffset":14416,"componentType":5126,"count":161,"min":[0.0],"max":[5.33333349],"type":"SCALAR","name":"accessorAnimationInput"},{"bufferView":1,"byteOffset":27060,"componentType":5126,"count":161,"type":"VEC3","name":"accessorAnimationPositions"},{"bufferView":0,"byteOffset":15060,"componentType":5126,"count":161,"min":[0.0],"max":[5.33333349],"type":"SCALAR","name":"accessorAnimationInput"},{"bufferView":2,"byteOffset":21584,"componentType":5126,"count":161,"type":"VEC4","name":"accessorAnimationRotations"},{"bufferView":0,"byteOffset":15704,"componentType":5126,"count":161,"min":[0.0],"max":[5.33333349],"type":"SCALAR","name":"accessorAnimationInput"},{"bufferView":1,"byteOffset":28992,"componentType":5126,"count":161,"type":"VEC3","name":"accessorAnimationPositions"}],"animations":[{"name":"BaronG58_Global","channels":[{"sampler":0,"target":{"node":9,"path":"translation"}},{"sampler":1,"target":{"node":9,"path":"rotation"}},{"sampler":2,"target":{"node":1,"path":"translation"}},{"sampler":3,"target":{"node":1,"path":"rotation"}},{"sampler":4,"target":{"node":1,"path":"scale"}}],"samplers":[{"input":0,"output":1,"interpolation":"LINEAR"},{"input":2,"output":3,"interpolation":"LINEAR"},{"input":4,"output":5,"interpolation":"LINEAR"},{"input":6,"output":7,"interpolation":"LINEAR"},{"input":8,"output":9,"interpolation":"LINEAR"}]},{"name":"BaronG58_Board","channels":[{"sampler":0,"target":{"node":0,"path":"translation"}},{"sampler":1,"target":{"node":8,"path":"translation"}},{"sampler":2,"target":{"node":8,"path":"rotation"}}],"samplers":[{"input":10,"output":11,"interpolation":"LINEAR"},{"input":12,"output":13,"interpolation":"LINEAR"},{"input":14,"output":15,"interpolation":"LINEAR"}]},{"name":"BaronG58_Lowboard","channels":[{"sampler":0,"target":{"node":11,"path":"translation"}},{"sampler":1,"target":{"node":11,"path":"rotation"}},{"sampler":2,"target":{"node":3,"path":"translation"}}],"samplers":[{"input":16,"output":17,"interpolation":"LINEAR"},{"input":18,"output":19,"interpolation":"LINEAR"},{"input":20,"output":21,"interpolation":"LINEAR"}]},{"name":"BaronG58_Overhead","channels":[{"sampler":0,"target":{"node":13,"path":"translation"}},{"sampler":1,"target":{"node":13,"path":"rotation"}},{"sampler":2,"target":{"node":5,"path":"translation"}}],"samplers":[{"input":22,"output":23,"interpolation":"LINEAR"},{"input":24,"output":25,"interpolation":"LINEAR"},{"input":26,"output":27,"interpolation":"LINEAR"}]},{"name":"BaronG58_Pedestal","channels":[{"sampler":0,"target":{"node":10,"path":"translation"}},{"sampler":1,"target":{"node":10,"path":"rotation"}},{"sampler":2,"target":{"node":2,"path":"translation"}},{"sampler":3,"target":{"node":2,"path":"rotation"}},{"sampler":4,"target":{"node":2,"path":"scale"}}],"samplers":[{"input":28,"output":29,"interpolation":"LINEAR"},{"input":30,"output":31,"interpolation":"LINEAR"},{"input":32,"output":33,"interpolation":"LINEAR"},{"input":34,"output":35,"interpolation":"LINEAR"},{"input":36,"output":37,"interpolation":"LINEAR"}]},{"name":"BaronG58_Seat","channels":[{"sampler":0,"target":{"node":6,"path":"translation"}},{"sampler":1,"target":{"node":6,"path":"rotation"}},{"sampler":2,"target":{"node":6,"path":"scale"}},{"sampler":3,"target":{"node":14,"path":"translation"}},{"sampler":4,"target":{"node":14,"path":"rotation"}}],"samplers":[{"input":38,"output":39,"interpolation":"LINEAR"},{"input":40,"output":41,"interpolation":"LINEAR"},{"input":42,"output":43,"interpolation":"LINEAR"},{"input":44,"output":45,"interpolation":"LINEAR"},{"input":46,"output":47,"interpolation":"LINEAR"}]},{"name":"BaronG58_Yoke","channels":[{"sampler":0,"target":{"node":12,"path":"translation"}},{"sampler":1,"target":{"node":12,"path":"rotation"}},{"sampler":2,"target":{"node":4,"path":"translation"}}],"samplers":[{"input":48,"output":49,"interpolation":"LINEAR"},{"input":50,"output":51,"interpolation":"LINEAR"},{"input":52,"output":53,"interpolation":"LINEAR"}]}],"asset":{"generator":"babylon.jsglTFexporterfor3dsmax2019v1.5.0","version":"2.0","extensions":{"ASOBO_asset_optimized":{"MajorVersion":4,"MinorVersion":4},"ASOBO_normal_map_convention":{"tangent_space_convention":"DirectX"}}},"bufferViews":[{"buffer":0,"byteLength":16348,"name":"bufferViewAnimationFloatScalar"},{"buffer":0,"byteLength":30924,"byteOffset":16348,"name":"bufferViewAnimationFloatVec3"},{"buffer":0,"byteLength":24160,"byteOffset":47272,"name":"bufferViewAnimationFloatVec4"}],"nodes":[{"translation":[-1.743129,-1.42730927,6.56353331],"rotation":[-0.0432999432,-0.7357779,0.674465656,-0.04303524],"scale":[0.9999998,1.00000012,1.00000012],"name":"BaronG58_Board_TARGET"},{"translation":[-3.3363915e-7,-1.43904471,6.8156476],"rotation":[-0.0432999432,-0.7357779,0.674465656,-0.04303524],"scale":[0.9999998,1.00000012,1.00000012],"name":"BaronG58_Global_TARGET"},{"translation":[-1.909398,-3.56579113,6.340114],"rotation":[-0.0432999432,-0.7357779,0.674465656,-0.04303524],"scale":[0.9999998,1.00000012,1.00000012],"name":"BaronG58_Pedestal_TARGET"},{"translation":[1.44518757,-1.971746,6.6863],"rotation":[-0.0432999432,-0.7357779,0.674465656,-0.04303524],"scale":[0.9999998,1.00000012,1.00000012],"name":"BaronG58_Lowboard_TARGET"},{"translation":[0.1449486,-2.498939,6.68234444],"rotation":[-0.0432999432,-0.7357779,0.674465656,-0.04303524],"scale":[0.9999998,1.00000012,1.00000012],"name":"BaronG58_Yoke_TARGET"},{"translation":[-7.450581e-9,3.59909153,6.78073835],"rotation":[-0.0432999432,-0.7357779,0.674465656,-0.04303524],"scale":[0.9999998,1.00000012,1.00000012],"name":"BaronG58_Overhead_TARGET"},{"translation":[-0.9205608,-0.7253261,-4.68690872],"rotation":[-0.0432999432,-0.7357779,0.674465656,-0.04303524],"scale":[0.999999762,1.00000012,1.00000012],"name":"BaronG58_Seat_TARGET"},{"translation":[0.0,0.0,0.0],"rotation":[0.0,0.0,0.0,1.0],"scale":[1.0,1.0,1.0],"name":"Defaultlight"},{"translation":[0.278393,0.657935,-0.222743213],"rotation":[0.0268301181,-0.979261935,-0.140300453,-0.143673167],"scale":[0.99999994,1.00000012,1.00000012],"camera":0,"name":"BaronG58_Board_CAMERA"},{"translation":[1.33437563e-8,0.952804,-1.42412877],"rotation":[2.92020275e-9,-0.9900396,-0.140788883,-2.083936e-8],"scale":[0.99999994,1.00000012,1.00000012],"camera":1,"name":"BaronG58_Global_CAMERA"},{"translation":[0.1980612,0.438688427,0.183230832],"rotation":[0.0507920124,-0.948844731,-0.267620385,-0.1596659],"scale":[0.9999999,1.00000012,1.00000012],"camera":2,"name":"BaronG58_Pedestal_CAMERA"},{"translation":[0.2600004,0.4397909,0.159546182],"rotation":[-0.0193906277,-0.9808029,-0.172415346,0.0890097246],"scale":[0.99999994,1.00000012,1.00000012],"camera":3,"name":"BaronG58_Lowboard_CAMERA"},{"translation":[0.2756003,0.5539777,0.1528483],"rotation":[0.002581564,-0.976143241,-0.21688807,-0.00985659],"scale":[0.99999994,1.00000012,1.00000012],"camera":4,"name":"BaronG58_Yoke_CAMERA"},{"translation":[0.06000001,0.8473892,-0.234795958],"rotation":[-0.0006117715,-0.982578158,0.185801864,-0.004167093],"scale":[0.9999999,1.00000012,1.00000012],"camera":5,"name":"BaronG58_Overhead_CAMERA"},{"translation":[0.1980612,0.914927065,0.786026239],"rotation":[-0.142037034,0.0989807546,0.009936493,0.984850049],"scale":[0.9999999,1.00000012,1.00000012],"camera":6,"name":"BaronG58_Seat_CAMERA"}],"scene":0,"scenes":[{"nodes":[0,1,2,3,4,5,6,7,8,9,10,11,12,13,14]}],"cameras":[{"type":"perspective","name":"BaronG58_Board_CAMERA","perspective":{"zfar":1000.0,"znear":0.000001,"yfov":0.721483648}},{"type":"perspective","name":"BaronG58_Global_CAMERA","perspective":{"zfar":1000.0,"znear":0.000001,"yfov":0.721483648}},{"type":"perspective","name":"BaronG58_Pedestal_CAMERA","perspective":{"zfar":1000.0,"znear":0.000001,"yfov":0.721483648}},{"type":"perspective","name":"BaronG58_Lowboard_CAMERA","perspective":{"zfar":1000.0,"znear":0.000001,"yfov":0.721483648}},{"type":"perspective","name":"BaronG58_Yoke_CAMERA","perspective":{"zfar":1000.0,"znear":0.000001,"yfov":0.721483648}},{"type":"perspective","name":"BaronG58_Overhead_CAMERA","perspective":{"zfar":1000.0,"znear":0.000001,"yfov":0.721483648}},{"type":"perspective","name":"BaronG58_Seat_CAMERA","perspective":{"zfar":1000.0,"znear":0.000001,"yfov":0.721483648}}],"extensionsUsed":["ASOBO_normal_map_convention","ASOBO_asset_optimized"],"buffers":[{"byteLength":71432,"uri":"PlaneShowcase_GROUND.bin"}]}
