{"accessors":[{"bufferView":0,"componentType":5126,"count":161,"min":[0.0],"max":[5.33333349],"type":"SCALAR","name":"accessorAnimationInput"},{"bufferView":1,"componentType":5126,"count":161,"type":"VEC3","name":"accessorAnimationPositions"},{"bufferView":0,"byteOffset":644,"componentType":5126,"count":161,"min":[0.0],"max":[5.33333349],"type":"SCALAR","name":"accessorAnimationInput"},{"bufferView":2,"componentType":5126,"count":161,"type":"VEC4","name":"accessorAnimationRotations"},{"bufferView":0,"byteOffset":1288,"componentType":5126,"count":161,"min":[0.0],"max":[5.33333349],"type":"SCALAR","name":"accessorAnimationInput"},{"bufferView":1,"byteOffset":1932,"componentType":5126,"count":161,"type":"VEC3","name":"accessorAnimationPositions"},{"bufferView":0,"byteOffset":1932,"componentType":5126,"count":161,"min":[0.0],"max":[5.33333349],"type":"SCALAR","name":"accessorAnimationInput"},{"bufferView":2,"byteOffset":2576,"componentType":5126,"count":161,"type":"VEC4","name":"accessorAnimationRotations"},{"bufferView":0,"byteOffset":2576,"componentType":5126,"count":161,"min":[0.0],"max":[5.33333349],"type":"SCALAR","name":"accessorAnimationInput"},{"bufferView":1,"byteOffset":3864,"componentType":5126,"count":161,"type":"VEC3","name":"accessorAnimationScales"},{"bufferView":0,"byteOffset":3220,"componentType":5126,"count":161,"min":[0.0],"max":[5.33333349],"type":"SCALAR","name":"accessorAnimationInput"},{"bufferView":1,"byteOffset":5796,"componentType":5126,"count":161,"type":"VEC3","name":"accessorAnimationPositions"},{"bufferView":0,"byteOffset":3864,"componentType":5126,"count":161,"min":[0.0],"max":[5.33333349],"type":"SCALAR","name":"accessorAnimationInput"},{"bufferView":1,"byteOffset":7728,"componentType":5126,"count":161,"type":"VEC3","name":"accessorAnimationPositions"},{"bufferView":0,"byteOffset":4508,"componentType":5126,"count":161,"min":[0.0],"max":[5.33333349],"type":"SCALAR","name":"accessorAnimationInput"},{"bufferView":2,"byteOffset":5152,"componentType":5126,"count":161,"type":"VEC4","name":"accessorAnimationRotations"},{"bufferView":0,"byteOffset":5152,"componentType":5126,"count":161,"min":[0.0],"max":[5.33333349],"type":"SCALAR","name":"accessorAnimationInput"},{"bufferView":1,"byteOffset":9660,"componentType":5126,"count":161,"type":"VEC3","name":"accessorAnimationPositions"},{"bufferView":0,"byteOffset":5796,"componentType":5126,"count":161,"min":[0.0],"max":[5.33333349],"type":"SCALAR","name":"accessorAnimationInput"},{"bufferView":2,"byteOffset":7728,"componentType":5126,"count":161,"type":"VEC4","name":"accessorAnimationRotations"},{"bufferView":0,"byteOffset":6440,"componentType":5126,"count":161,"min":[0.0],"max":[5.33333349],"type":"SCALAR","name":"accessorAnimationInput"},{"bufferView":1,"byteOffset":11592,"componentType":5126,"count":161,"type":"VEC3","name":"accessorAnimationPositions"},{"bufferView":0,"byteOffset":7084,"componentType":5126,"count":161,"min":[0.0],"max":[5.33333349],"type":"SCALAR","name":"accessorAnimationInput"},{"bufferView":1,"byteOffset":13524,"componentType":5126,"count":161,"type":"VEC3","name":"accessorAnimationPositions"},{"bufferView":0,"byteOffset":7728,"componentType":5126,"count":161,"min":[0.0],"max":[5.33333349],"type":"SCALAR","name":"accessorAnimationInput"},{"bufferView":2,"byteOffset":10304,"componentType":5126,"count":161,"type":"VEC4","name":"accessorAnimationRotations"},{"bufferView":0,"byteOffset":8372,"componentType":5126,"count":161,"min":[0.0],"max":[5.33333349],"type":"SCALAR","name":"accessorAnimationInput"},{"bufferView":1,"byteOffset":15456,"componentType":5126,"count":161,"type":"VEC3","name":"accessorAnimationPositions"},{"bufferView":0,"byteOffset":9016,"componentType":5126,"count":161,"min":[0.0],"max":[5.33333349],"type":"SCALAR","name":"accessorAnimationInput"},{"bufferView":2,"byteOffset":12880,"componentType":5126,"count":161,"type":"VEC4","name":"accessorAnimationRotations"},{"bufferView":0,"byteOffset":9660,"componentType":5126,"count":161,"min":[0.0],"max":[5.33333349],"type":"SCALAR","name":"accessorAnimationInput"},{"bufferView":1,"byteOffset":17388,"componentType":5126,"count":161,"type":"VEC3","name":"accessorAnimationScales"},{"bufferView":0,"byteOffset":10304,"componentType":5126,"count":141,"min":[0.0],"max":[4.66666651],"type":"SCALAR","name":"accessorAnimationInput"},{"bufferView":1,"byteOffset":19320,"componentType":5126,"count":141,"type":"VEC3","name":"accessorAnimationPositions"},{"bufferView":0,"byteOffset":10868,"componentType":5126,"count":141,"min":[0.0],"max":[4.66666651],"type":"SCALAR","name":"accessorAnimationInput"},{"bufferView":2,"byteOffset":15456,"componentType":5126,"count":141,"type":"VEC4","name":"accessorAnimationRotations"},{"bufferView":0,"byteOffset":11432,"componentType":5126,"count":141,"min":[0.0],"max":[4.66666651],"type":"SCALAR","name":"accessorAnimationInput"},{"bufferView":1,"byteOffset":21012,"componentType":5126,"count":141,"type":"VEC3","name":"accessorAnimationPositions"},{"bufferView":0,"byteOffset":11996,"componentType":5126,"count":141,"min":[0.0],"max":[4.66666651],"type":"SCALAR","name":"accessorAnimationInput"},{"bufferView":2,"byteOffset":17712,"componentType":5126,"count":141,"type":"VEC4","name":"accessorAnimationRotations"},{"bufferView":0,"byteOffset":12560,"componentType":5126,"count":141,"min":[0.0],"max":[4.66666651],"type":"SCALAR","name":"accessorAnimationInput"},{"bufferView":1,"byteOffset":22704,"componentType":5126,"count":141,"type":"VEC3","name":"accessorAnimationScales"},{"bufferView":0,"byteOffset":13124,"componentType":5126,"count":141,"min":[0.0],"max":[4.66666651],"type":"SCALAR","name":"accessorAnimationInput"},{"bufferView":1,"byteOffset":24396,"componentType":5126,"count":141,"type":"VEC3","name":"accessorAnimationPositions"},{"bufferView":0,"byteOffset":13688,"componentType":5126,"count":141,"min":[0.0],"max":[4.66666651],"type":"SCALAR","name":"accessorAnimationInput"},{"bufferView":2,"byteOffset":19968,"componentType":5126,"count":141,"type":"VEC4","name":"accessorAnimationRotations"},{"bufferView":0,"byteOffset":14252,"componentType":5126,"count":141,"min":[0.0],"max":[4.66666651],"type":"SCALAR","name":"accessorAnimationInput"},{"bufferView":1,"byteOffset":26088,"componentType":5126,"count":141,"type":"VEC3","name":"accessorAnimationScales"},{"bufferView":0,"byteOffset":14816,"componentType":5126,"count":161,"min":[0.0],"max":[5.33333349],"type":"SCALAR","name":"accessorAnimationInput"},{"bufferView":1,"byteOffset":27780,"componentType":5126,"count":161,"type":"VEC3","name":"accessorAnimationPositions"},{"bufferView":0,"byteOffset":15460,"componentType":5126,"count":161,"min":[0.0],"max":[5.33333349],"type":"SCALAR","name":"accessorAnimationInput"},{"bufferView":2,"byteOffset":22224,"componentType":5126,"count":161,"type":"VEC4","name":"accessorAnimationRotations"},{"bufferView":0,"byteOffset":16104,"componentType":5126,"count":161,"min":[0.0],"max":[5.33333349],"type":"SCALAR","name":"accessorAnimationInput"},{"bufferView":1,"byteOffset":29712,"componentType":5126,"count":161,"type":"VEC3","name":"accessorAnimationPositions"}],"animations":[{"name":"BaronG58_Global","channels":[{"sampler":0,"target":{"node":8,"path":"translation"}},{"sampler":1,"target":{"node":8,"path":"rotation"}},{"sampler":2,"target":{"node":1,"path":"translation"}},{"sampler":3,"target":{"node":1,"path":"rotation"}},{"sampler":4,"target":{"node":1,"path":"scale"}}],"samplers":[{"input":0,"output":1,"interpolation":"LINEAR"},{"input":2,"output":3,"interpolation":"LINEAR"},{"input":4,"output":5,"interpolation":"LINEAR"},{"input":6,"output":7,"interpolation":"LINEAR"},{"input":8,"output":9,"interpolation":"LINEAR"}]},{"name":"BaronG58_Board","channels":[{"sampler":0,"target":{"node":0,"path":"translation"}},{"sampler":1,"target":{"node":7,"path":"translation"}},{"sampler":2,"target":{"node":7,"path":"rotation"}}],"samplers":[{"input":10,"output":11,"interpolation":"LINEAR"},{"input":12,"output":13,"interpolation":"LINEAR"},{"input":14,"output":15,"interpolation":"LINEAR"}]},{"name":"BaronG58_Lowboard","channels":[{"sampler":0,"target":{"node":10,"path":"translation"}},{"sampler":1,"target":{"node":10,"path":"rotation"}},{"sampler":2,"target":{"node":3,"path":"translation"}}],"samplers":[{"input":16,"output":17,"interpolation":"LINEAR"},{"input":18,"output":19,"interpolation":"LINEAR"},{"input":20,"output":21,"interpolation":"LINEAR"}]},{"name":"BaronG58_Overhead","channels":[{"sampler":0,"target":{"node":12,"path":"translation"}},{"sampler":1,"target":{"node":12,"path":"rotation"}},{"sampler":2,"target":{"node":5,"path":"translation"}},{"sampler":3,"target":{"node":5,"path":"rotation"}},{"sampler":4,"target":{"node":5,"path":"scale"}}],"samplers":[{"input":22,"output":23,"interpolation":"LINEAR"},{"input":24,"output":25,"interpolation":"LINEAR"},{"input":26,"output":27,"interpolation":"LINEAR"},{"input":28,"output":29,"interpolation":"LINEAR"},{"input":30,"output":31,"interpolation":"LINEAR"}]},{"name":"BaronG58_Pedestal","channels":[{"sampler":0,"target":{"node":9,"path":"translation"}},{"sampler":1,"target":{"node":9,"path":"rotation"}},{"sampler":2,"target":{"node":2,"path":"translation"}},{"sampler":3,"target":{"node":2,"path":"rotation"}},{"sampler":4,"target":{"node":2,"path":"scale"}}],"samplers":[{"input":32,"output":33,"interpolation":"LINEAR"},{"input":34,"output":35,"interpolation":"LINEAR"},{"input":36,"output":37,"interpolation":"LINEAR"},{"input":38,"output":39,"interpolation":"LINEAR"},{"input":40,"output":41,"interpolation":"LINEAR"}]},{"name":"BaronG58_Seat","channels":[{"sampler":0,"target":{"node":6,"path":"translation"}},{"sampler":1,"target":{"node":6,"path":"rotation"}},{"sampler":2,"target":{"node":6,"path":"scale"}}],"samplers":[{"input":42,"output":43,"interpolation":"LINEAR"},{"input":44,"output":45,"interpolation":"LINEAR"},{"input":46,"output":47,"interpolation":"LINEAR"}]},{"name":"BaronG58_Yoke","channels":[{"sampler":0,"target":{"node":11,"path":"translation"}},{"sampler":1,"target":{"node":11,"path":"rotation"}},{"sampler":2,"target":{"node":4,"path":"translation"}}],"samplers":[{"input":48,"output":49,"interpolation":"LINEAR"},{"input":50,"output":51,"interpolation":"LINEAR"},{"input":52,"output":53,"interpolation":"LINEAR"}]}],"asset":{"generator":"babylon.js glTF exporter for 3dsmax 2019 v1.0.7878.25882","version":"2.0","extensions":{"ASOBO_asset_optimized":{"MajorVersion":4,"MinorVersion":4},"ASOBO_normal_map_convention":{"tangent_space_convention":"DirectX"}}},"bufferViews":[{"buffer":0,"byteLength":16748,"name":"bufferViewAnimationFloatScalar"},{"buffer":0,"byteLength":31644,"byteOffset":16748,"name":"bufferViewAnimationFloatVec3"},{"buffer":0,"byteLength":24800,"byteOffset":48392,"name":"bufferViewAnimationFloatVec4"}],"nodes":[{"translation":[-1.743129,-1.42730927,6.56353331],"rotation":[-0.0432999432,-0.7357779,0.674465656,-0.04303524],"scale":[0.9999998,1.00000012,1.00000012],"name":"BaronG58_Board_TARGET"},{"translation":[-3.3363915e-7,-0.282109916,6.8156476],"rotation":[-0.0432999432,-0.7357779,0.674465656,-0.04303524],"scale":[0.9999998,1.00000012,1.00000012],"name":"BaronG58_Global_TARGET"},{"translation":[-3.021375,-3.75667,5.52639627],"rotation":[-0.0432999432,-0.7357779,0.674465656,-0.04303524],"scale":[0.9999998,1.00000012,1.00000012],"name":"BaronG58_Pedestal_TARGET"},{"translation":[0.9537709,-1.91955423,7.536283],"rotation":[-0.0432999432,-0.7357779,0.674465656,-0.04303524],"scale":[0.9999998,1.00000012,1.00000012],"name":"BaronG58_Lowboard_TARGET"},{"translation":[0.1449486,-2.498939,6.68234444],"rotation":[-0.0432999432,-0.7357779,0.674465656,-0.04303524],"scale":[0.9999998,1.00000012,1.00000012],"name":"BaronG58_Yoke_TARGET"},{"translation":[0.0565836579,0.6562156,5.275764],"rotation":[-0.0432999432,-0.7357779,0.674465656,-0.04303524],"scale":[0.9999998,1.00000012,1.00000012],"name":"BaronG58_Overhead_TARGET"},{"translation":[-0.9205608,-0.7253261,-4.68690872],"rotation":[-0.0432999432,-0.7357779,0.674465656,-0.04303524],"scale":[0.999999762,1.00000012,1.00000012],"name":"BaronG58_Seat_TARGET"},{"translation":[0.278393,0.657935,-0.222743213],"rotation":[0.0268301181,-0.979261935,-0.140300453,-0.143673167],"scale":[0.99999994,1.00000012,1.00000012],"camera":0,"name":"BaronG58_Board_CAMERA"},{"translation":[1.33437563e-8,0.710406363,-1.42412877],"rotation":[1.21674582e-9,-0.998204231,-0.05990255,-2.10148769e-8],"scale":[0.99999994,1.00000012,1.00000012],"camera":1,"name":"BaronG58_Global_CAMERA"},{"translation":[0.2967142,0.516261339,-0.0205408782],"rotation":[0.08259232,-0.922563732,-0.2758885,-0.2567882],"scale":[0.9999999,1.00000012,1.00000012],"camera":2,"name":"BaronG58_Pedestal_CAMERA"},{"translation":[0.224207759,0.5126194,-0.0375617743],"rotation":[-0.0112508535,-0.9868839,-0.1537117,0.04802451],"scale":[0.9999999,1.00000012,1.00000012],"camera":3,"name":"BaronG58_Lowboard_CAMERA"},{"translation":[0.276893616,0.584198534,0.0882127658],"rotation":[0.002581564,-0.976143241,-0.21688807,-0.009856589],"scale":[0.99999994,1.00000012,1.00000012],"camera":4,"name":"BaronG58_Yoke_CAMERA"},{"translation":[0.05658368,0.4180075,-2.14977026],"rotation":[0.000185957411,-0.999871433,0.01603359,0.00000298045052],"scale":[0.99999994,1.00000012,1.00000012],"camera":5,"name":"BaronG58_Overhead_CAMERA"},{"translation":[0.153763816,0.852037668,0.569298],"rotation":[-0.142211527,0.09897745,0.009954251,0.984825],"scale":[0.9999999,1.00000012,1.00000012],"camera":6,"name":"BaronG58_Seat_CAMERA"}],"scene":0,"scenes":[{"nodes":[0,1,2,3,4,5,6,7,8,9,10,11,12,13]}],"cameras":[{"type":"perspective","name":"BaronG58_Board_CAMERA","perspective":{"zfar":1000.0,"znear":0.000001,"yfov":0.721483648}},{"type":"perspective","name":"BaronG58_Global_CAMERA","perspective":{"zfar":1000.0,"znear":0.000001,"yfov":0.721483648}},{"type":"perspective","name":"BaronG58_Pedestal_CAMERA","perspective":{"zfar":1000.0,"znear":0.000001,"yfov":0.721483648}},{"type":"perspective","name":"BaronG58_Lowboard_CAMERA","perspective":{"zfar":1000.0,"znear":0.000001,"yfov":0.721483648}},{"type":"perspective","name":"BaronG58_Yoke_CAMERA","perspective":{"zfar":1000.0,"znear":0.000001,"yfov":0.721483648}},{"type":"perspective","name":"BaronG58_Overhead_CAMERA","perspective":{"zfar":1000.0,"znear":0.000001,"yfov":0.721483648}},{"type":"perspective","name":"BaronG58_Seat_CAMERA","perspective":{"zfar":1000.0,"znear":0.000001,"yfov":0.721483648}}],"extensionsUsed":["ASOBO_normal_map_convention","ASOBO_asset_optimized"],"buffers":[{"byteLength":73192,"uri":"PlaneShowcase_COCKPIT.bin"}]}
