{"accessors":[{"bufferView":0,"componentType":5126,"count":1001,"min":[0.0],"max":[33.3333321],"type":"SCALAR","name":"accessorAnimationInput"},{"bufferView":1,"componentType":5126,"count":1001,"type":"VEC3","name":"accessorAnimationPositions"},{"bufferView":0,"byteOffset":4004,"componentType":5126,"count":1001,"min":[0.0],"max":[33.3333321],"type":"SCALAR","name":"accessorAnimationInput"},{"bufferView":2,"componentType":5126,"count":1001,"type":"VEC4","name":"accessorAnimationRotations"},{"bufferView":0,"byteOffset":8008,"componentType":5126,"count":1001,"min":[0.0],"max":[33.3333321],"type":"SCALAR","name":"accessorAnimationInput"},{"bufferView":1,"byteOffset":12012,"componentType":5126,"count":1001,"type":"VEC3","name":"accessorAnimationScales"},{"bufferView":3,"componentType":5126,"count":4,"min":[-0.10697222501039505,-0.07951286435127258,0.0022084731608629228],"max":[0.10373081266880036,0.08214080333709717,0.0022085625678300859],"type":"VEC3","name":"x4_AS1000_PFD_Screen_1_vertices#0_POSITION"},{"bufferView":3,"byteOffset":12,"componentType":5120,"count":4,"type":"VEC4","name":"x4_AS1000_PFD_Screen_1_vertices#0_TANGENT"},{"bufferView":3,"byteOffset":16,"componentType":5120,"count":4,"type":"VEC4","name":"x4_AS1000_PFD_Screen_1_vertices#0_NORMAL"},{"bufferView":3,"byteOffset":20,"componentType":5122,"count":4,"type":"VEC2","name":"x4_AS1000_PFD_Screen_1_vertices#0_TEXCOORD_0"},{"bufferView":3,"byteOffset":24,"componentType":5122,"count":4,"type":"VEC2","name":"x4_AS1000_PFD_Screen_1_vertices#0_TEXCOORD_1"},{"bufferView":3,"byteOffset":28,"componentType":5123,"count":4,"type":"VEC4","name":"x4_AS1000_PFD_Screen_1_vertices#0_COLOR_0"},{"bufferView":4,"componentType":5123,"count":6,"type":"SCALAR","name":"x4_AS1000_PFD_Screen_1_indices#0"},{"bufferView":3,"byteOffset":144,"componentType":5126,"count":20,"min":[-0.035427890717983249,-0.03543248027563095,-0.006829737685620785],"max":[0.03542786091566086,0.03542322665452957,-0.0036076772958040239],"type":"VEC3","name":"x4_INSTRUMENT_AttitudeIndicator_Bank_1_vertices#0_POSITION"},{"bufferView":3,"byteOffset":156,"componentType":5120,"count":20,"type":"VEC4","name":"x4_INSTRUMENT_AttitudeIndicator_Bank_1_vertices#0_TANGENT"},{"bufferView":3,"byteOffset":160,"componentType":5120,"count":20,"type":"VEC4","name":"x4_INSTRUMENT_AttitudeIndicator_Bank_1_vertices#0_NORMAL"},{"bufferView":3,"byteOffset":164,"componentType":5122,"count":20,"type":"VEC2","name":"x4_INSTRUMENT_AttitudeIndicator_Bank_1_vertices#0_TEXCOORD_0"},{"bufferView":3,"byteOffset":168,"componentType":5122,"count":20,"type":"VEC2","name":"x4_INSTRUMENT_AttitudeIndicator_Bank_1_vertices#0_TEXCOORD_1"},{"bufferView":3,"byteOffset":172,"componentType":5123,"count":20,"type":"VEC4","name":"x4_INSTRUMENT_AttitudeIndicator_Bank_1_vertices#0_COLOR_0"},{"bufferView":4,"byteOffset":12,"componentType":5123,"count":48,"type":"SCALAR","name":"x4_INSTRUMENT_AttitudeIndicator_Bank_1_indices#0"},{"bufferView":3,"byteOffset":864,"componentType":5126,"count":1658,"min":[-0.9783452749252319,-0.8214637041091919,-0.06568121910095215],"max":[0.22782474756240846,0.4894394278526306,3.680382251739502],"type":"VEC3","name":"x4_CABIN_vertices#0_POSITION"},{"bufferView":3,"byteOffset":876,"componentType":5120,"count":1658,"type":"VEC4","name":"x4_CABIN_vertices#0_TANGENT"},{"bufferView":3,"byteOffset":880,"componentType":5120,"count":1658,"type":"VEC4","name":"x4_CABIN_vertices#0_NORMAL"},{"bufferView":3,"byteOffset":884,"componentType":5122,"count":1658,"type":"VEC2","name":"x4_CABIN_vertices#0_TEXCOORD_0"},{"bufferView":3,"byteOffset":888,"componentType":5122,"count":1658,"type":"VEC2","name":"x4_CABIN_vertices#0_TEXCOORD_1"},{"bufferView":3,"byteOffset":892,"componentType":5123,"count":1658,"type":"VEC4","name":"x4_CABIN_vertices#0_COLOR_0"},{"bufferView":4,"byteOffset":108,"componentType":5123,"count":4131,"type":"SCALAR","name":"x4_CABIN_indices#0"},{"bufferView":3,"byteOffset":60552,"componentType":5126,"count":4,"min":[-0.10697222501039505,-0.07951286435127258,0.0022084731608629228],"max":[0.10373081266880036,0.08214080333709717,0.0022085625678300859],"type":"VEC3","name":"x4_AS1000_PFD_Screen_2_vertices#0_POSITION"},{"bufferView":3,"byteOffset":60564,"componentType":5120,"count":4,"type":"VEC4","name":"x4_AS1000_PFD_Screen_2_vertices#0_TANGENT"},{"bufferView":3,"byteOffset":60568,"componentType":5120,"count":4,"type":"VEC4","name":"x4_AS1000_PFD_Screen_2_vertices#0_NORMAL"},{"bufferView":3,"byteOffset":60572,"componentType":5122,"count":4,"type":"VEC2","name":"x4_AS1000_PFD_Screen_2_vertices#0_TEXCOORD_0"},{"bufferView":3,"byteOffset":60576,"componentType":5122,"count":4,"type":"VEC2","name":"x4_AS1000_PFD_Screen_2_vertices#0_TEXCOORD_1"},{"bufferView":3,"byteOffset":60580,"componentType":5123,"count":4,"type":"VEC4","name":"x4_AS1000_PFD_Screen_2_vertices#0_COLOR_0"},{"bufferView":4,"byteOffset":8370,"componentType":5123,"count":6,"type":"SCALAR","name":"x4_AS1000_PFD_Screen_2_indices#0"}],"animations":[{"name":"All Animations","channels":[{"sampler":0,"target":{"node":4,"path":"translation"}},{"sampler":1,"target":{"node":4,"path":"rotation"}},{"sampler":2,"target":{"node":4,"path":"scale"}}],"samplers":[{"input":0,"output":1,"interpolation":"LINEAR"},{"input":2,"output":3,"interpolation":"LINEAR"},{"input":4,"output":5,"interpolation":"LINEAR"}]}],"asset":{"generator":"babylon.js glTF exporter for 3dsmax 2019 v1.0.7954.30439","version":"2.0","extensions":{"ASOBO_asset_optimized":{"BoundingBoxMax":[0.22782474756240846,0.4894394278526306,3.680382251739502],"BoundingBoxMin":[-0.9783452749252319,-0.8214637041091919,-0.06568121910095215],"MajorVersion":4,"MinorVersion":4,"UseCheckerboardMaterialForMissingTextures":true},"ASOBO_normal_map_convention":{"tangent_space_convention":"DirectX"}}},"bufferViews":[{"buffer":0,"byteLength":12012,"name":"bufferViewAnimationFloatScalar"},{"buffer":0,"byteLength":24024,"byteOffset":12012,"name":"bufferViewAnimationFloatVec3"},{"buffer":0,"byteLength":16016,"byteOffset":36036,"name":"bufferViewAnimationFloatVec4"},{"buffer":0,"byteLength":60696,"byteStride":36,"byteOffset":52052,"target":34962,"name":"BufferViewVertexND"},{"buffer":0,"byteLength":8382,"byteOffset":112748,"target":34963,"name":"BufferViewIndex"}],"extensionsRequired":["MSFT_texture_dds"],"materials":[{"name":"$AS1000_PFD_1","emissiveFactor":[1.0,1.0,1.0],"pbrMetallicRoughness":{"baseColorFactor":[0.0,0.0,0.0,1.0]}},{"name":"Generic_LOD5","occlusionTexture":{"index":1},"pbrMetallicRoughness":{"baseColorTexture":{"index":0},"metallicRoughnessTexture":{"index":1}}},{"name":"$AS1000_PFD_2","emissiveFactor":[1.0,1.0,1.0],"pbrMetallicRoughness":{"baseColorFactor":[0.0,0.0,0.0,1.0]}}],"meshes":[{"primitives":[{"attributes":{"COLOR_0":11,"NORMAL":8,"POSITION":6,"TANGENT":7,"TEXCOORD_0":9,"TEXCOORD_1":10},"indices":12,"material":0,"mode":4,"extras":{"ASOBO_primitive":{"PrimitiveCount":2,"VertexType":"VTX","VertexVersion":2}}}],"name":"x4_AS1000_PFD_Screen_1"},{"primitives":[{"attributes":{"COLOR_0":18,"NORMAL":15,"POSITION":13,"TANGENT":14,"TEXCOORD_0":16,"TEXCOORD_1":17},"indices":19,"material":1,"mode":4,"extras":{"ASOBO_primitive":{"PrimitiveCount":16,"VertexType":"VTX","VertexVersion":2}}}],"name":"x4_INSTRUMENT_AttitudeIndicator_Bank_1"},{"primitives":[{"attributes":{"COLOR_0":25,"NORMAL":22,"POSITION":20,"TANGENT":21,"TEXCOORD_0":23,"TEXCOORD_1":24},"indices":26,"material":1,"mode":4,"extras":{"ASOBO_primitive":{"PrimitiveCount":1377,"VertexType":"VTX","VertexVersion":2}}}],"name":"x4_CABIN"},{"primitives":[{"attributes":{"COLOR_0":32,"NORMAL":29,"POSITION":27,"TANGENT":28,"TEXCOORD_0":30,"TEXCOORD_1":31},"indices":33,"material":2,"mode":4,"extras":{"ASOBO_primitive":{"PrimitiveCount":2,"VertexType":"VTX","VertexVersion":2}}}],"name":"x4_AS1000_PFD_Screen_2"}],"nodes":[{"translation":[0.3076789,0.488256156,0.5906582],"rotation":[0.0532074,0.0,0.0,0.998583555],"scale":[1.02,1.01999986,1.01999986],"name":"CONTAINER_AS1000_PFD_NoAutopilot_1_1","children":[1]},{"scale":[1.0,1.00000012,1.00000012],"name":"CONTAINER_AS1000_PFD_Common_1","children":[2]},{"translation":[-0.00436460972,0.0327134132,0.00777310133],"rotation":[0.0003762358,-1.95154656e-11,-9.152147e-10,0.99999994],"scale":[1.0,0.99999994,0.99999994],"mesh":0,"name":"AS1000_PFD_Screen_1"},{"translation":[-0.3023671,0.5111804,0.609026968],"rotation":[0.05473605,-8.729173e-8,4.78517759e-9,0.9985009],"name":"CONTAINER_AttitudeIndicator_KnobPull_1_1","children":[4]},{"translation":[0.00006237626,0.00475722551,-0.0008006692],"rotation":[0.000296114653,8.96224464e-8,-2.10522472e-7,1.0],"scale":[1.0887599,1.08876,1.08876],"mesh":1,"name":"INSTRUMENT_AttitudeIndicator_Bank_1"},{"translation":[-0.01012288,0.0,-0.8225904],"name":"Occluder"},{"translation":[0.3530547,0.550867736,-2.68340135],"mesh":2,"name":"CABIN"},{"translation":[-0.074659586,0.488267243,0.5893195],"rotation":[0.0532074,0.0,0.0,0.998583555],"scale":[1.02,1.01999986,1.01999986],"name":"CONTAINER_AS1000_PFD_WithAutopilot_NoYawDamper_1_1","children":[8]},{"translation":[0.0,-1.1920929e-7,0.0],"scale":[1.0,1.00000012,1.00000012],"name":"CONTAINER_AS1000_PFD_Common_2","children":[9]},{"translation":[-0.00436460972,0.0327134132,0.00777310133],"rotation":[0.0003762358,-1.95154656e-11,-9.152147e-10,0.99999994],"scale":[1.0,0.99999994,0.99999994],"mesh":3,"name":"AS1000_PFD_Screen_2"},{"translation":[0.276307821,0.09062958,0.0481719971],"name":"PILOT_0"},{"translation":[-0.276175737,0.09062958,0.0481719971],"name":"PILOT_1"}],"scene":0,"scenes":[{"nodes":[0,3,5,6,7,10,11]}],"textures":[{"extensions":{"MSFT_texture_dds":{"source":0}}},{"extensions":{"MSFT_texture_dds":{"source":1}}}],"extensionsUsed":["ASOBO_normal_map_convention","MSFT_texture_dds","ASOBO_asset_optimized"],"buffers":[{"byteLength":121130,"uri":"Baron_interior_LOD04.bin"}],"images":[{"uri":"ATLAS_ALBD.PNG.DDS","extras":"ASOBO_image_converted_meta"},{"uri":"ATLAS_COMP.PNG.DDS","extras":"ASOBO_image_converted_meta"}]}
